<mxfile host="app.diagrams.net" modified="2023-08-21T03:32:55.297Z" agent="Mozilla/5.0 (Macintosh; Intel Mac OS X 10_15_7) AppleWebKit/605.1.15 (KHTML, like Gecko) Version/16.1 Safari/605.1.15" etag="ZDaPV80fycSqmhkYJ6yb" version="21.6.8" type="github">
  <diagram name="Page-1" id="I7Y3hiiRVUTPG9mWLFpE">
    <mxGraphModel dx="1194" dy="-462" grid="1" gridSize="10" guides="1" tooltips="1" connect="1" arrows="1" fold="1" page="1" pageScale="1" pageWidth="827" pageHeight="1169" math="0" shadow="0">
      <root>
        <mxCell id="0" />
        <mxCell id="1" parent="0" />
        <mxCell id="vs_2RJhaY_KzSQfV4Trc-13" style="edgeStyle=orthogonalEdgeStyle;rounded=0;sketch=1;hachureGap=4;jiggle=2;curveFitting=1;orthogonalLoop=1;jettySize=auto;html=1;exitX=1;exitY=0.5;exitDx=0;exitDy=0;exitPerimeter=0;entryX=0;entryY=0.5;entryDx=0;entryDy=0;entryPerimeter=0;fontFamily=Architects Daughter;fontSource=https%3A%2F%2Ffonts.googleapis.com%2Fcss%3Ffamily%3DArchitects%2BDaughter;fontSize=16;" edge="1" parent="1" source="vs_2RJhaY_KzSQfV4Trc-1" target="vs_2RJhaY_KzSQfV4Trc-4">
          <mxGeometry relative="1" as="geometry" />
        </mxCell>
        <mxCell id="vs_2RJhaY_KzSQfV4Trc-14" style="edgeStyle=orthogonalEdgeStyle;rounded=0;sketch=1;hachureGap=4;jiggle=2;curveFitting=1;orthogonalLoop=1;jettySize=auto;html=1;exitX=1;exitY=0.5;exitDx=0;exitDy=0;exitPerimeter=0;fontFamily=Architects Daughter;fontSource=https%3A%2F%2Ffonts.googleapis.com%2Fcss%3Ffamily%3DArchitects%2BDaughter;fontSize=16;" edge="1" parent="1" source="vs_2RJhaY_KzSQfV4Trc-1" target="vs_2RJhaY_KzSQfV4Trc-5">
          <mxGeometry relative="1" as="geometry" />
        </mxCell>
        <mxCell id="vs_2RJhaY_KzSQfV4Trc-15" style="edgeStyle=orthogonalEdgeStyle;rounded=0;sketch=1;hachureGap=4;jiggle=2;curveFitting=1;orthogonalLoop=1;jettySize=auto;html=1;exitX=1;exitY=0.5;exitDx=0;exitDy=0;exitPerimeter=0;entryX=0;entryY=0.5;entryDx=0;entryDy=0;entryPerimeter=0;fontFamily=Architects Daughter;fontSource=https%3A%2F%2Ffonts.googleapis.com%2Fcss%3Ffamily%3DArchitects%2BDaughter;fontSize=16;" edge="1" parent="1" source="vs_2RJhaY_KzSQfV4Trc-1" target="vs_2RJhaY_KzSQfV4Trc-6">
          <mxGeometry relative="1" as="geometry" />
        </mxCell>
        <mxCell id="vs_2RJhaY_KzSQfV4Trc-1" value="Header&lt;br&gt;Exchange" style="strokeWidth=2;html=1;shape=mxgraph.flowchart.decision;whiteSpace=wrap;fillColor=#a0522d;strokeColor=#6D1F00;fontColor=#ffffff;fontSize=16;rounded=0;" vertex="1" parent="1">
          <mxGeometry x="110" y="1320" width="100" height="100" as="geometry" />
        </mxCell>
        <mxCell id="vs_2RJhaY_KzSQfV4Trc-2" value="" style="endArrow=classic;html=1;sketch=1;hachureGap=4;jiggle=2;curveFitting=1;fontFamily=Helvetica;fontSource=https://fonts.googleapis.com/css?family=Architects+Daughter;fontSize=17;fontColor=#ffffff;entryX=-0.06;entryY=0.5;entryDx=0;entryDy=0;entryPerimeter=0;" edge="1" parent="1" target="vs_2RJhaY_KzSQfV4Trc-1">
          <mxGeometry width="50" height="50" relative="1" as="geometry">
            <mxPoint x="20" y="1370" as="sourcePoint" />
            <mxPoint x="80" y="1370" as="targetPoint" />
          </mxGeometry>
        </mxCell>
        <mxCell id="vs_2RJhaY_KzSQfV4Trc-3" value="&lt;font style=&quot;font-size: 12px;&quot;&gt;routing_key = &quot;3483424&quot;&lt;br&gt;&amp;nbsp; &amp;nbsp; &amp;nbsp; &amp;nbsp; &amp;nbsp; &amp;nbsp; &amp;nbsp; &amp;nbsp; &amp;nbsp;&quot;3488384&quot;&lt;br&gt;&lt;/font&gt;" style="text;html=1;strokeColor=none;fillColor=none;align=left;verticalAlign=middle;whiteSpace=wrap;rounded=0;fontSize=20;fontFamily=Architects Daughter;" vertex="1" parent="1">
          <mxGeometry x="20" y="1260" width="170" height="80" as="geometry" />
        </mxCell>
        <mxCell id="vs_2RJhaY_KzSQfV4Trc-10" style="edgeStyle=orthogonalEdgeStyle;rounded=0;sketch=1;hachureGap=4;jiggle=2;curveFitting=1;orthogonalLoop=1;jettySize=auto;html=1;exitX=1;exitY=0.5;exitDx=0;exitDy=0;exitPerimeter=0;fontFamily=Architects Daughter;fontSource=https%3A%2F%2Ffonts.googleapis.com%2Fcss%3Ffamily%3DArchitects%2BDaughter;fontSize=16;" edge="1" parent="1" source="vs_2RJhaY_KzSQfV4Trc-4" target="vs_2RJhaY_KzSQfV4Trc-7">
          <mxGeometry relative="1" as="geometry" />
        </mxCell>
        <mxCell id="vs_2RJhaY_KzSQfV4Trc-4" value="queue" style="strokeWidth=2;html=1;shape=mxgraph.flowchart.direct_data;whiteSpace=wrap;fillColor=#1ba1e2;fontColor=#ffffff;strokeColor=#006EAF;fontSize=17;rounded=0;" vertex="1" parent="1">
          <mxGeometry x="314" y="1190" width="100" height="60" as="geometry" />
        </mxCell>
        <mxCell id="vs_2RJhaY_KzSQfV4Trc-11" style="edgeStyle=orthogonalEdgeStyle;rounded=0;sketch=1;hachureGap=4;jiggle=2;curveFitting=1;orthogonalLoop=1;jettySize=auto;html=1;exitX=1;exitY=0.5;exitDx=0;exitDy=0;exitPerimeter=0;fontFamily=Architects Daughter;fontSource=https%3A%2F%2Ffonts.googleapis.com%2Fcss%3Ffamily%3DArchitects%2BDaughter;fontSize=16;" edge="1" parent="1" source="vs_2RJhaY_KzSQfV4Trc-5" target="vs_2RJhaY_KzSQfV4Trc-8">
          <mxGeometry relative="1" as="geometry" />
        </mxCell>
        <mxCell id="vs_2RJhaY_KzSQfV4Trc-5" value="queue" style="strokeWidth=2;html=1;shape=mxgraph.flowchart.direct_data;whiteSpace=wrap;fillColor=#1ba1e2;fontColor=#ffffff;strokeColor=#006EAF;fontSize=17;rounded=0;" vertex="1" parent="1">
          <mxGeometry x="314" y="1340" width="100" height="60" as="geometry" />
        </mxCell>
        <mxCell id="vs_2RJhaY_KzSQfV4Trc-12" style="edgeStyle=orthogonalEdgeStyle;rounded=0;sketch=1;hachureGap=4;jiggle=2;curveFitting=1;orthogonalLoop=1;jettySize=auto;html=1;exitX=1;exitY=0.5;exitDx=0;exitDy=0;exitPerimeter=0;fontFamily=Architects Daughter;fontSource=https%3A%2F%2Ffonts.googleapis.com%2Fcss%3Ffamily%3DArchitects%2BDaughter;fontSize=16;" edge="1" parent="1" source="vs_2RJhaY_KzSQfV4Trc-6" target="vs_2RJhaY_KzSQfV4Trc-9">
          <mxGeometry relative="1" as="geometry" />
        </mxCell>
        <mxCell id="vs_2RJhaY_KzSQfV4Trc-6" value="queue" style="strokeWidth=2;html=1;shape=mxgraph.flowchart.direct_data;whiteSpace=wrap;fillColor=#1ba1e2;fontColor=#ffffff;strokeColor=#006EAF;fontSize=17;rounded=0;" vertex="1" parent="1">
          <mxGeometry x="320" y="1490" width="100" height="60" as="geometry" />
        </mxCell>
        <mxCell id="vs_2RJhaY_KzSQfV4Trc-7" value="Service A" style="strokeWidth=2;html=1;shape=mxgraph.flowchart.start_1;whiteSpace=wrap;fillColor=#0050ef;strokeColor=default;fontColor=#ffffff;fontSize=17;rounded=0;" vertex="1" parent="1">
          <mxGeometry x="510" y="1185" width="130" height="70" as="geometry" />
        </mxCell>
        <mxCell id="vs_2RJhaY_KzSQfV4Trc-8" value="Service B" style="strokeWidth=2;html=1;shape=mxgraph.flowchart.start_1;whiteSpace=wrap;fillColor=#0050ef;strokeColor=default;fontColor=#ffffff;fontSize=17;rounded=0;" vertex="1" parent="1">
          <mxGeometry x="510" y="1335" width="130" height="70" as="geometry" />
        </mxCell>
        <mxCell id="vs_2RJhaY_KzSQfV4Trc-9" value="Service C" style="strokeWidth=2;html=1;shape=mxgraph.flowchart.start_1;whiteSpace=wrap;fillColor=#0050ef;strokeColor=default;fontColor=#ffffff;fontSize=17;rounded=0;" vertex="1" parent="1">
          <mxGeometry x="510" y="1485" width="130" height="70" as="geometry" />
        </mxCell>
        <mxCell id="vs_2RJhaY_KzSQfV4Trc-16" value="&lt;font style=&quot;font-size: 11px;&quot;&gt;routing_key=1&lt;/font&gt;" style="text;html=1;strokeColor=none;fillColor=none;align=center;verticalAlign=middle;whiteSpace=wrap;rounded=0;fontSize=20;fontFamily=Architects Daughter;" vertex="1" parent="1">
          <mxGeometry x="190" y="1390" width="60" height="30" as="geometry" />
        </mxCell>
        <mxCell id="vs_2RJhaY_KzSQfV4Trc-17" value="1/4" style="text;html=1;strokeColor=none;fillColor=none;align=center;verticalAlign=middle;whiteSpace=wrap;rounded=0;fontSize=20;fontFamily=Architects Daughter;" vertex="1" parent="1">
          <mxGeometry x="420" y="1190" width="60" height="30" as="geometry" />
        </mxCell>
        <mxCell id="vs_2RJhaY_KzSQfV4Trc-19" value="1/4" style="text;html=1;strokeColor=none;fillColor=none;align=center;verticalAlign=middle;whiteSpace=wrap;rounded=0;fontSize=20;fontFamily=Architects Daughter;" vertex="1" parent="1">
          <mxGeometry x="430" y="1485" width="60" height="30" as="geometry" />
        </mxCell>
        <mxCell id="vs_2RJhaY_KzSQfV4Trc-20" value="1/2" style="text;html=1;strokeColor=none;fillColor=none;align=center;verticalAlign=middle;whiteSpace=wrap;rounded=0;fontSize=20;fontFamily=Architects Daughter;" vertex="1" parent="1">
          <mxGeometry x="420" y="1335" width="60" height="30" as="geometry" />
        </mxCell>
      </root>
    </mxGraphModel>
  </diagram>
</mxfile>
